<svg id="Layer_1" data-name="Layer 1" xmlns="http://www.w3.org/2000/svg" viewBox="0 0 181.33 59.26"><defs><style>.cls-1{fill:#fff;}</style></defs><title>Artboard 1</title><path class="cls-1" d="M37.59,23.07H35.1v2.09h2v.78h-2v3.23h-1V22.28h3.59Z"/><path class="cls-1" d="M38.61,28.58a2.8,2.8,0,0,1-.73-2c0-1.68.92-2.7,2.43-2.7a2.29,2.29,0,0,1,1.9.82,2.8,2.8,0,0,1,.57,1.9,2.85,2.85,0,0,1-.54,1.9,2.17,2.17,0,0,1-1.87.81A2.2,2.2,0,0,1,38.61,28.58Zm2.94-.78a2.94,2.94,0,0,0,.17-1.18,3.16,3.16,0,0,0-.23-1.4,1.21,1.21,0,0,0-1.2-.66,1.26,1.26,0,0,0-1.1.55,2.59,2.59,0,0,0-.27,1.36,3.15,3.15,0,0,0,.33,1.58,1.22,1.22,0,0,0,1.12.51A1.13,1.13,0,0,0,41.55,27.8Z"/><path class="cls-1" d="M47,29.17l-1.5-2.63c-.31-.52-.66-1.26-.7-1.36,0,.27,0,.81.06,1.47l0,2.52H44V23.91h1.06l1.53,2.65c.31.54.56,1.08.63,1.22,0-.12-.08-.79-.09-1.41l0-2.46H48v5.26Z"/><path class="cls-1" d="M52.15,24.09a2.24,2.24,0,0,1,1.51,2.45A2.42,2.42,0,0,1,52,29.1a4.08,4.08,0,0,1-.94.07H49.48V23.91h1.18A3.92,3.92,0,0,1,52.15,24.09Zm.09,1.05a1.38,1.38,0,0,0-1.2-.48h-.62v3.75h.73a2,2,0,0,0,.5-.06c.56-.14,1-.63,1-1.74A2.16,2.16,0,0,0,52.24,25.14Z"/><path class="cls-1" d="M57.59,29a2.86,2.86,0,0,1-1.39.31,4.21,4.21,0,0,1-1.94-.47l.36-.73a3.34,3.34,0,0,0,1.63.43,1.5,1.5,0,0,0,.79-.17.67.67,0,0,0,.39-.6c0-.38-.27-.62-.93-.79l-.75-.19a1.78,1.78,0,0,1-1.06-.68,1.26,1.26,0,0,1-.23-.73c0-.93.83-1.58,2-1.58a3.58,3.58,0,0,1,1.89.52l-.43.67a2.77,2.77,0,0,0-1.42-.42c-.61,0-1,.26-1,.68s.23.51.83.68l.72.18a2.37,2.37,0,0,1,1.06.54,1.35,1.35,0,0,1,.38.95A1.59,1.59,0,0,1,57.59,29Z"/><path class="cls-1" d="M64.39,29.17l-1.5-2.63c-.31-.52-.66-1.26-.7-1.36,0,.27.05.81.06,1.47l0,2.52h-.93V23.91h1.06L64,26.56c.31.54.56,1.08.63,1.22,0-.12-.08-.79-.09-1.41l0-2.46h.9v5.26Z"/><path class="cls-1" d="M70,29.17l-.5-1.37h-2l-.5,1.37h-1l2-5.27h1.09l1.92,5.27Zm-1.47-4.42c0,.14-.72,2.16-.76,2.3h1.51C69.26,26.87,68.6,24.89,68.57,24.75Z"/><path class="cls-1" d="M75.18,24.68H73.66v4.49h-.93V24.68h-1.5v-.77h4.08Z"/><path class="cls-1" d="M76.12,29.17V23.91h.95v5.26Z"/><path class="cls-1" d="M79,28.58a2.8,2.8,0,0,1-.73-2c0-1.68.92-2.7,2.43-2.7a2.29,2.29,0,0,1,1.9.82,2.8,2.8,0,0,1,.57,1.9,2.85,2.85,0,0,1-.54,1.9,2.17,2.17,0,0,1-1.87.81A2.2,2.2,0,0,1,79,28.58Zm2.94-.78a2.94,2.94,0,0,0,.17-1.18,3.16,3.16,0,0,0-.23-1.4,1.21,1.21,0,0,0-1.2-.66,1.26,1.26,0,0,0-1.1.55,2.59,2.59,0,0,0-.27,1.36,3.15,3.15,0,0,0,.33,1.58,1.22,1.22,0,0,0,1.12.51A1.13,1.13,0,0,0,81.93,27.8Z"/><path class="cls-1" d="M87.4,29.17l-1.5-2.63c-.31-.52-.66-1.26-.7-1.36,0,.27,0,.81.06,1.47l0,2.52h-.93V23.91h1.06L87,26.56c.31.54.56,1.08.63,1.22,0-.12-.08-.79-.09-1.41l0-2.46h.9v5.26Z"/><path class="cls-1" d="M93.05,29.17l-.5-1.37h-2l-.5,1.37h-1l2-5.27h1.09l1.92,5.27Zm-1.47-4.42c0,.14-.72,2.16-.76,2.3h1.51C92.27,26.87,91.61,24.89,91.58,24.75Z"/><path class="cls-1" d="M97.81,29.17h-3V23.91h.95V28.4H98Z"/><path class="cls-1" d="M103.41,29a2.86,2.86,0,0,1-1.39.31,4.21,4.21,0,0,1-1.94-.47l.36-.73a3.34,3.34,0,0,0,1.63.43,1.5,1.5,0,0,0,.79-.17.67.67,0,0,0,.39-.6c0-.38-.27-.62-.93-.79l-.75-.19a1.78,1.78,0,0,1-1.06-.68,1.26,1.26,0,0,1-.23-.73c0-.93.83-1.58,2-1.58a3.58,3.58,0,0,1,1.89.52l-.43.67a2.77,2.77,0,0,0-1.42-.42c-.61,0-1,.26-1,.68s.23.51.83.68l.72.18a2.37,2.37,0,0,1,1.06.54,1.35,1.35,0,0,1,.38.95A1.59,1.59,0,0,1,103.41,29Z"/><path class="cls-1" d="M109,28.76a2.16,2.16,0,0,1-1.57.5,1.93,1.93,0,0,1-1.83-.83,2,2,0,0,1-.21-1.11V23.91h.94v3.23a2.47,2.47,0,0,0,.08.8,1,1,0,0,0,1,.54,1.07,1.07,0,0,0,.88-.33,1.27,1.27,0,0,0,.2-.89V23.91h.95V27.3C109.49,28.14,109.38,28.43,109,28.76Z"/><path class="cls-1" d="M111,29.17V23.91h1v5.26Z"/><path class="cls-1" d="M116.24,29a2.86,2.86,0,0,1-1.39.31,4.21,4.21,0,0,1-1.94-.47l.36-.73a3.34,3.34,0,0,0,1.63.43,1.5,1.5,0,0,0,.79-.17.67.67,0,0,0,.39-.6c0-.38-.27-.62-.93-.79l-.75-.19a1.78,1.78,0,0,1-1.06-.68,1.26,1.26,0,0,1-.23-.73c0-.93.83-1.58,2-1.58a3.58,3.58,0,0,1,1.89.52l-.43.67a2.77,2.77,0,0,0-1.42-.42c-.61,0-1,.26-1,.68s.23.51.83.68l.72.18a2.37,2.37,0,0,1,1.06.54,1.35,1.35,0,0,1,.38.95A1.59,1.59,0,0,1,116.24,29Z"/><path class="cls-1" d="M121.1,29a2.86,2.86,0,0,1-1.39.31,4.21,4.21,0,0,1-1.94-.47l.36-.73a3.34,3.34,0,0,0,1.63.43,1.5,1.5,0,0,0,.79-.17.67.67,0,0,0,.39-.6c0-.38-.27-.62-.93-.79l-.75-.19a1.78,1.78,0,0,1-1.06-.68,1.26,1.26,0,0,1-.23-.73c0-.93.83-1.58,2-1.58a3.58,3.58,0,0,1,1.89.52l-.43.67a2.77,2.77,0,0,0-1.42-.42c-.61,0-1,.26-1,.68s.23.51.83.68l.72.18a2.37,2.37,0,0,1,1.06.54,1.35,1.35,0,0,1,.38.95A1.59,1.59,0,0,1,121.1,29Z"/><path class="cls-1" d="M123.13,29.17V23.91h3.3l-.13.77h-2.23V26h1.86v.77h-1.85v1.56h2.43v.8Z"/><path class="cls-1" d="M35.8,39.3a4.22,4.22,0,0,1-2.22-.61L34,38a3.39,3.39,0,0,0,1.86.57c.9,0,1.49-.46,1.49-1.2,0-.56-.37-1-1.14-1.17l-.72-.21c-1-.3-1.63-.8-1.63-1.78a2,2,0,0,1,2.28-2,3.66,3.66,0,0,1,2.11.65l-.43.68A2.9,2.9,0,0,0,36.14,33c-.77,0-1.25.4-1.25,1,0,.49.28.77,1,1l.81.24a2,2,0,0,1,1.68,1.94A2.31,2.31,0,0,1,35.8,39.3Z"/><path class="cls-1" d="M41.89,39.25a2.48,2.48,0,0,1-1.77-.65,2.68,2.68,0,0,1-.77-2A3,3,0,0,1,39.8,35a2.47,2.47,0,0,1,2.13-1.16,2.64,2.64,0,0,1,1.48.42l-.46.63a1.84,1.84,0,0,0-1-.3,1.43,1.43,0,0,0-1.29.74,2.38,2.38,0,0,0-.26,1.25A2,2,0,0,0,40.81,38a1.49,1.49,0,0,0,1.17.51,2,2,0,0,0,1.09-.33l.45.58A2.67,2.67,0,0,1,41.89,39.25Z"/><path class="cls-1" d="M47.54,39.17v-2.4h-2.1v2.4H44.5V33.91h.94V36h2.1V33.91h.94v5.26Z"/><path class="cls-1" d="M55.07,39.2H54l-.59-2.3A14.45,14.45,0,0,1,53,35.21c0,.21-.16.95-.33,1.65l-.57,2.34H51l-1.41-5.29h1l.61,2.32a14,14,0,0,1,.35,1.8,15.49,15.49,0,0,1,.36-1.75l.61-2.37h1l.64,2.53c.16.63.28,1.28.32,1.55,0-.24.17-1,.35-1.73l.6-2.35h1Z"/><path class="cls-1" d="M57.41,39.17V33.91h3.3l-.13.77H58.35V36h1.86v.77H58.36v1.56h2.43v.8Z"/><path class="cls-1" d="M62.25,39.17V33.91h1v5.26Z"/><path class="cls-1" d="M68.18,39.17H64.61V38.5L67,35.12a5.26,5.26,0,0,1,.35-.46H64.7l.23-.76h3.45v.7L66.06,38c-.13.18-.25.34-.33.43l.53,0h2.17Z"/><path class="cls-1" d="M69.73,39.17V33.91H73l-.13.77H70.67V36h1.86v.77H70.68v1.56h2.43v.8Z"/><path class="cls-1" d="M77.44,39.17c-.15-.26-.32-.52-.5-.81a4.64,4.64,0,0,0-1-1.25.75.75,0,0,0-.46-.19v2.25h-.93V33.91h1.57a2.41,2.41,0,0,1,1.51.32,1.44,1.44,0,0,1,.6,1.18,1.4,1.4,0,0,1-1.46,1.47,1.18,1.18,0,0,1,.26.24l.75,1c.3.43.76,1,.78,1.08ZM75.5,34.66v1.6H76a1.61,1.61,0,0,0,1-.21.74.74,0,0,0,.27-.62.7.7,0,0,0-.51-.69,2.17,2.17,0,0,0-.69-.08Z"/><path class="cls-1" d="M79.83,39.17V33.91h1v5.26Z"/><path class="cls-1" d="M85.34,39a2.86,2.86,0,0,1-1.39.31A4.21,4.21,0,0,1,82,38.81l.36-.73a3.34,3.34,0,0,0,1.63.43,1.5,1.5,0,0,0,.79-.17.67.67,0,0,0,.39-.6c0-.38-.27-.62-.93-.79l-.75-.19a1.78,1.78,0,0,1-1.06-.68,1.26,1.26,0,0,1-.23-.73c0-.93.83-1.58,2-1.58a3.58,3.58,0,0,1,1.89.52l-.43.67a2.77,2.77,0,0,0-1.42-.42c-.61,0-1,.26-1,.68s.23.51.83.68l.72.18a2.37,2.37,0,0,1,1.06.54,1.35,1.35,0,0,1,.38,1A1.59,1.59,0,0,1,85.34,39Z"/><path class="cls-1" d="M91.38,38.78l-.45-.58a2,2,0,0,1-1.09.33A1.49,1.49,0,0,1,88.67,38a2,2,0,0,1-.42-1.47,2.38,2.38,0,0,1,.26-1.25,1.43,1.43,0,0,1,1.29-.74,1.84,1.84,0,0,1,1,.3l.46-.63a2.64,2.64,0,0,0-1.48-.42A2.47,2.47,0,0,0,87.66,35a3,3,0,0,0-.45,1.64,2.68,2.68,0,0,0,.77,2,2.48,2.48,0,0,0,1.77.65A2.67,2.67,0,0,0,91.38,38.78Z"/><path class="cls-1" d="M95.4,39.17v-2.4H93.3v2.4h-.94V33.91h.94V36h2.1V33.91h.94v5.26Z"/><path class="cls-1" d="M98,39.17V33.91h3.3l-.13.77H99V36h1.86v.77H99v1.56h2.43v.8Z"/><path class="cls-1" d="M105.75,39.17c-.15-.26-.32-.52-.5-.81a4.64,4.64,0,0,0-1-1.25.75.75,0,0,0-.46-.19v2.25h-.93V33.91h1.57a2.41,2.41,0,0,1,1.51.32,1.44,1.44,0,0,1,.6,1.18,1.4,1.4,0,0,1-1.46,1.47,1.18,1.18,0,0,1,.26.24l.75,1c.3.43.76,1,.78,1.08Zm-1.94-4.51v1.6h.51a1.61,1.61,0,0,0,1-.21.74.74,0,0,0,.27-.62.7.7,0,0,0-.51-.69,2.17,2.17,0,0,0-.69-.08Z"/><path class="cls-1" d="M115.1,39.17l-1.81-3.66a18.65,18.65,0,0,1-.84-1.89h-.06c0,.59.07,1.28.08,1.92l0,3.62h-1V32.28h1.12l1.92,3.8a13.31,13.31,0,0,1,.68,1.65l.06,0c0-.2-.1-1.29-.1-2.05l0-3.38h.93v6.89Z"/><path class="cls-1" d="M121,39.17l-.5-1.37h-2l-.5,1.37h-1l2-5.27h1.09l1.92,5.27Zm-1.47-4.42c0,.14-.72,2.16-.76,2.3h1.51C120.26,36.87,119.6,34.89,119.57,34.75Z"/><path class="cls-1" d="M126.11,34.68h-1.52v4.49h-.93V34.68h-1.5v-.77h4.08Z"/><path class="cls-1" d="M127.28,39.17V33.91h.95v5.26Z"/><path class="cls-1" d="M130.38,38.58a2.8,2.8,0,0,1-.73-2c0-1.68.92-2.7,2.43-2.7a2.29,2.29,0,0,1,1.9.82,2.8,2.8,0,0,1,.57,1.9,2.85,2.85,0,0,1-.54,1.9,2.17,2.17,0,0,1-1.87.81A2.2,2.2,0,0,1,130.38,38.58Zm2.94-.78a2.94,2.94,0,0,0,.17-1.18,3.16,3.16,0,0,0-.23-1.4,1.21,1.21,0,0,0-1.2-.66,1.26,1.26,0,0,0-1.1.55,2.59,2.59,0,0,0-.27,1.36,3.15,3.15,0,0,0,.33,1.58,1.22,1.22,0,0,0,1.12.51A1.13,1.13,0,0,0,133.32,37.8Z"/><path class="cls-1" d="M139,39.17l-1.5-2.63c-.31-.52-.66-1.26-.7-1.36,0,.27.05.81.06,1.47l0,2.52H136V33.91h1.06l1.53,2.65c.31.54.56,1.08.63,1.22,0-.12-.08-.79-.09-1.41l0-2.46h.9v5.26Z"/><path class="cls-1" d="M144.9,39.17l-.5-1.37h-2l-.5,1.37h-1l2-5.27H144l1.92,5.27Zm-1.47-4.42c0,.14-.72,2.16-.76,2.3h1.51C144.12,36.87,143.46,34.89,143.43,34.75Z"/><path class="cls-1" d="M149.89,39.17h-3V33.91h.95V38.4H150Z"/><path class="cls-1" d="M154,34.66H151.9V36h1.71v.76H151.9v2.38H151V33.91h3.14Z"/><path class="cls-1" d="M155.67,38.58a2.8,2.8,0,0,1-.73-2c0-1.68.92-2.7,2.43-2.7a2.29,2.29,0,0,1,1.9.82,2.8,2.8,0,0,1,.57,1.9,2.85,2.85,0,0,1-.54,1.9,2.17,2.17,0,0,1-1.87.81A2.2,2.2,0,0,1,155.67,38.58Zm2.94-.78a2.94,2.94,0,0,0,.17-1.18,3.16,3.16,0,0,0-.23-1.4,1.21,1.21,0,0,0-1.2-.66,1.26,1.26,0,0,0-1.1.55,2.59,2.59,0,0,0-.27,1.36,3.15,3.15,0,0,0,.33,1.58,1.22,1.22,0,0,0,1.12.51A1.13,1.13,0,0,0,158.61,37.8Z"/><path class="cls-1" d="M164.31,39.17l-1.5-2.63c-.31-.52-.66-1.26-.7-1.36,0,.27,0,.81.06,1.47l0,2.52h-.93V33.91h1.06l1.53,2.65c.31.54.56,1.08.63,1.22,0-.12-.08-.79-.09-1.41l0-2.46h.9v5.26Z"/><path class="cls-1" d="M169.67,34.09a2.24,2.24,0,0,1,1.51,2.45,2.42,2.42,0,0,1-1.71,2.56,4.08,4.08,0,0,1-.94.07H167V33.91h1.18A3.92,3.92,0,0,1,169.67,34.09Zm.09,1a1.38,1.38,0,0,0-1.2-.48h-.62v3.75h.73a2,2,0,0,0,.5-.06c.56-.14,1-.63,1-1.74A2.16,2.16,0,0,0,169.76,35.14Z"/><path class="cls-1" d="M175.44,39a2.86,2.86,0,0,1-1.39.31,4.21,4.21,0,0,1-1.94-.47l.36-.73a3.34,3.34,0,0,0,1.63.43,1.5,1.5,0,0,0,.79-.17.67.67,0,0,0,.39-.6c0-.38-.27-.62-.93-.79l-.75-.19a1.78,1.78,0,0,1-1.06-.68,1.26,1.26,0,0,1-.23-.73c0-.93.83-1.58,2-1.58a3.58,3.58,0,0,1,1.89.52l-.43.67a2.77,2.77,0,0,0-1.42-.42c-.61,0-1,.26-1,.68s.23.51.83.68l.72.18a2.37,2.37,0,0,1,1.06.54,1.35,1.35,0,0,1,.38,1A1.59,1.59,0,0,1,175.44,39Z"/><path class="cls-1" d="M37.59,43.07H35.1v2.09h2v.78h-2v3.23h-1V42.28h3.59Z"/><path class="cls-1" d="M38.61,48.58a2.8,2.8,0,0,1-.73-2c0-1.68.92-2.7,2.43-2.7a2.29,2.29,0,0,1,1.9.82,2.8,2.8,0,0,1,.57,1.9,2.85,2.85,0,0,1-.54,1.9,2.17,2.17,0,0,1-1.87.81A2.2,2.2,0,0,1,38.61,48.58Zm2.94-.78a2.94,2.94,0,0,0,.17-1.18,3.16,3.16,0,0,0-.23-1.4,1.21,1.21,0,0,0-1.2-.66,1.26,1.26,0,0,0-1.1.55,2.59,2.59,0,0,0-.27,1.36,3.15,3.15,0,0,0,.33,1.58,1.22,1.22,0,0,0,1.12.51A1.13,1.13,0,0,0,41.55,47.8Z"/><path class="cls-1" d="M47,49.17l-1.5-2.63c-.31-.52-.66-1.26-.7-1.36,0,.27,0,.81.06,1.47l0,2.52H44V43.91h1.06l1.53,2.65c.31.54.56,1.08.63,1.22,0-.12-.08-.79-.09-1.41l0-2.46H48v5.26Z"/><path class="cls-1" d="M52.15,44.09a2.24,2.24,0,0,1,1.51,2.45A2.42,2.42,0,0,1,52,49.1a4.08,4.08,0,0,1-.94.07H49.48V43.91h1.18A3.92,3.92,0,0,1,52.15,44.09Zm.09,1a1.38,1.38,0,0,0-1.2-.48h-.62v3.75h.73a2,2,0,0,0,.5-.06c.56-.14,1-.63,1-1.74A2.16,2.16,0,0,0,52.24,45.14Z"/><path class="cls-1" d="M55.28,48.58a2.8,2.8,0,0,1-.73-2c0-1.68.92-2.7,2.43-2.7a2.29,2.29,0,0,1,1.9.82,2.8,2.8,0,0,1,.57,1.9,2.85,2.85,0,0,1-.54,1.9,2.17,2.17,0,0,1-1.87.81A2.2,2.2,0,0,1,55.28,48.58Zm2.94-.78a2.94,2.94,0,0,0,.17-1.18,3.16,3.16,0,0,0-.23-1.4,1.21,1.21,0,0,0-1.2-.66,1.26,1.26,0,0,0-1.1.55,2.59,2.59,0,0,0-.27,1.36,3.15,3.15,0,0,0,.33,1.58,1.22,1.22,0,0,0,1.12.51A1.13,1.13,0,0,0,58.22,47.8Z"/><path class="cls-1" d="M65.26,49.17l-1.5-2.63c-.31-.52-.66-1.26-.7-1.36,0,.27,0,.81.06,1.47l0,2.52h-.93V43.91h1.06l1.53,2.65c.31.54.56,1.08.63,1.22,0-.12-.08-.79-.09-1.41l0-2.46h.9v5.26Z"/><path class="cls-1" d="M70.91,49.17l-.5-1.37h-2l-.5,1.37H67l2-5.27H70l1.92,5.27Zm-1.47-4.42c0,.14-.72,2.16-.76,2.3h1.51C70.13,46.87,69.47,44.89,69.44,44.75Z"/><path class="cls-1" d="M75.9,49.17H72.33V48.5l2.35-3.38a5.26,5.26,0,0,1,.35-.46H72.42l.23-.76H76.1v.7L73.78,48c-.13.18-.25.34-.33.43l.53,0h2.17Z"/><path class="cls-1" d="M77.24,49.17V43.91h1v5.26Z"/><path class="cls-1" d="M80.11,48.58a2.8,2.8,0,0,1-.73-2c0-1.68.92-2.7,2.43-2.7a2.29,2.29,0,0,1,1.9.82,2.8,2.8,0,0,1,.57,1.9,2.85,2.85,0,0,1-.54,1.9,2.17,2.17,0,0,1-1.87.81A2.2,2.2,0,0,1,80.11,48.58Zm2.94-.78a2.94,2.94,0,0,0,.17-1.18,3.16,3.16,0,0,0-.23-1.4,1.21,1.21,0,0,0-1.2-.66,1.26,1.26,0,0,0-1.1.55,2.59,2.59,0,0,0-.27,1.36,3.15,3.15,0,0,0,.33,1.58,1.22,1.22,0,0,0,1.12.51A1.13,1.13,0,0,0,83.05,47.8Z"/><path class="cls-1" d="M88.52,49.17,87,46.54c-.31-.52-.66-1.26-.7-1.36,0,.27.05.81.06,1.47l0,2.52h-.93V43.91h1.06l1.53,2.65c.31.54.56,1.08.63,1.22,0-.12-.08-.79-.09-1.41l0-2.46h.9v5.26Z"/><path class="cls-1" d="M94.17,49.17l-.5-1.37h-2l-.5,1.37h-1l2-5.27h1.09l1.92,5.27ZM92.7,44.75c0,.14-.72,2.16-.76,2.3h1.51C93.39,46.87,92.73,44.89,92.7,44.75Z"/><path class="cls-1" d="M98.93,49.17h-3V43.91h1V48.4h2.22Z"/><path class="cls-1" d="M99.78,49.17V43.91h3.3l-.13.77h-2.23V46h1.86v.77h-1.85v1.56h2.43v.8Z"/><path class="cls-1" d="M108.77,49a2.86,2.86,0,0,1-1.39.31,4.21,4.21,0,0,1-1.94-.47l.36-.73a3.34,3.34,0,0,0,1.63.43,1.5,1.5,0,0,0,.79-.17.67.67,0,0,0,.39-.6c0-.38-.27-.62-.93-.79l-.75-.19a1.78,1.78,0,0,1-1.06-.68,1.26,1.26,0,0,1-.23-.73c0-.93.83-1.58,2-1.58a3.58,3.58,0,0,1,1.89.52l-.43.67a2.77,2.77,0,0,0-1.42-.42c-.61,0-1,.26-1,.68s.23.51.83.68l.72.18a2.37,2.37,0,0,1,1.06.54,1.35,1.35,0,0,1,.38,1A1.59,1.59,0,0,1,108.77,49Z"/><path class="cls-1" d="M113,49.19h-.87l-2-5.28h1l1.07,2.79a11,11,0,0,1,.37,1.17,9.13,9.13,0,0,1,.36-1.14l1.13-2.82h1Z"/><path class="cls-1" d="M116.79,49.17V43.91h-1v5.26Z"/><path class="cls-1" d="M121.54,49.17H118V48.5l2.35-3.38a5.26,5.26,0,0,1,.35-.46h-2.61l.23-.76h3.45v.7L119.42,48c-.13.18-.25.34-.33.43l.53,0h2.17Z"/><path class="cls-1" d="M126.11,49.17h-3.57V48.5l2.35-3.38a5.26,5.26,0,0,1,.35-.46h-2.61l.23-.76h3.45v.7L124,48c-.13.18-.25.34-.33.43l.53,0h2.17Z"/><path class="cls-1" d="M127.43,49.17V43.91h3.3l-.13.77h-2.23V46h1.86v.77h-1.85v1.56h2.43v.8Z"/><path class="cls-1" d="M134.91,49.17c-.15-.26-.32-.52-.5-.81a4.64,4.64,0,0,0-1-1.25.75.75,0,0,0-.46-.19v2.25H132V43.91h1.57a2.41,2.41,0,0,1,1.51.32,1.44,1.44,0,0,1,.6,1.18,1.4,1.4,0,0,1-1.46,1.47,1.18,1.18,0,0,1,.26.24l.75,1c.3.43.76,1,.78,1.08ZM133,44.66v1.6h.51a1.61,1.61,0,0,0,1-.21.74.74,0,0,0,.27-.62.7.7,0,0,0-.51-.69,2.17,2.17,0,0,0-.69-.08Z"/><path class="cls-1" d="M137.37,48.58a2.8,2.8,0,0,1-.73-2c0-1.68.92-2.7,2.43-2.7a2.29,2.29,0,0,1,1.9.82,2.8,2.8,0,0,1,.57,1.9,2.85,2.85,0,0,1-.54,1.9,2.17,2.17,0,0,1-1.87.81A2.2,2.2,0,0,1,137.37,48.58Zm2.94-.78a2.94,2.94,0,0,0,.17-1.18,3.16,3.16,0,0,0-.23-1.4,1.21,1.21,0,0,0-1.2-.66,1.26,1.26,0,0,0-1.1.55,2.59,2.59,0,0,0-.27,1.36,3.15,3.15,0,0,0,.33,1.58,1.22,1.22,0,0,0,1.12.51A1.13,1.13,0,0,0,140.31,47.8Z"/><path class="cls-1" d="M35.8,59.3a4.22,4.22,0,0,1-2.22-.61L34,58a3.39,3.39,0,0,0,1.86.57c.9,0,1.49-.46,1.49-1.2,0-.56-.37-1-1.14-1.17l-.72-.21c-1-.3-1.63-.8-1.63-1.78a2,2,0,0,1,2.28-2,3.66,3.66,0,0,1,2.11.65l-.43.68A2.9,2.9,0,0,0,36.14,53c-.77,0-1.25.4-1.25,1,0,.49.28.77,1,1l.81.24a2,2,0,0,1,1.68,1.94A2.31,2.31,0,0,1,35.8,59.3Z"/><path class="cls-1" d="M44.38,59.2h-1.1l-.59-2.3a14.45,14.45,0,0,1-.34-1.69c0,.21-.16.95-.33,1.65l-.57,2.34H40.33l-1.41-5.29h1l.61,2.32a14,14,0,0,1,.35,1.8,15.49,15.49,0,0,1,.36-1.75l.61-2.37h1l.64,2.53c.16.63.28,1.28.32,1.55,0-.24.17-1,.35-1.73l.6-2.35h1Z"/><path class="cls-1" d="M47.64,59.17V53.91h-1v5.26Z"/><path class="cls-1" d="M52,59a2.86,2.86,0,0,1-1.39.31,4.21,4.21,0,0,1-1.94-.47l.36-.73a3.34,3.34,0,0,0,1.63.43,1.5,1.5,0,0,0,.79-.17.67.67,0,0,0,.39-.6c0-.38-.27-.62-.93-.79l-.75-.19a1.78,1.78,0,0,1-1.06-.68,1.26,1.26,0,0,1-.23-.73c0-.93.83-1.58,2-1.58a3.58,3.58,0,0,1,1.89.52l-.43.67a2.77,2.77,0,0,0-1.42-.42c-.61,0-1,.26-1,.68s.23.51.83.68l.72.18a2.37,2.37,0,0,1,1.06.54,1.35,1.35,0,0,1,.38,1A1.59,1.59,0,0,1,52,59Z"/><path class="cls-1" d="M56.79,59a2.86,2.86,0,0,1-1.39.31,4.21,4.21,0,0,1-1.94-.47l.36-.73a3.34,3.34,0,0,0,1.63.43,1.5,1.5,0,0,0,.79-.17.67.67,0,0,0,.39-.6c0-.38-.27-.62-.93-.79L55,56.76a1.78,1.78,0,0,1-1.06-.68,1.26,1.26,0,0,1-.23-.73c0-.93.83-1.58,2-1.58a3.58,3.58,0,0,1,1.89.52l-.43.67a2.77,2.77,0,0,0-1.42-.42c-.61,0-1,.26-1,.68s.23.51.83.68l.72.18a2.37,2.37,0,0,1,1.06.54,1.35,1.35,0,0,1,.38,1A1.59,1.59,0,0,1,56.79,59Z"/><path class="cls-1" d="M64.33,59.17l-1.81-3.66a18.65,18.65,0,0,1-.84-1.89h-.06c.05.59.07,1.28.08,1.92l0,3.62h-1V52.28h1.12l1.92,3.8a13.31,13.31,0,0,1,.68,1.65l.06,0c0-.2-.1-1.29-.1-2.05l0-3.38h.93v6.89Z"/><path class="cls-1" d="M70,59.17l-.5-1.37h-2l-.5,1.37h-1l2-5.27h1.09l1.92,5.27Zm-1.47-4.42c0,.14-.72,2.16-.76,2.3H69.3C69.24,56.87,68.58,54.89,68.55,54.75Z"/><path class="cls-1" d="M74.94,54.68H73.42v4.49h-.93V54.68H71v-.77h4.08Z"/><path class="cls-1" d="M75.86,59.17V53.91h1v5.26Z"/><path class="cls-1" d="M78.71,58.58a2.8,2.8,0,0,1-.73-2c0-1.68.92-2.7,2.43-2.7a2.29,2.29,0,0,1,1.9.82,2.8,2.8,0,0,1,.57,1.9,2.85,2.85,0,0,1-.54,1.9,2.17,2.17,0,0,1-1.87.81A2.2,2.2,0,0,1,78.71,58.58Zm2.94-.78a2.94,2.94,0,0,0,.17-1.18,3.16,3.16,0,0,0-.23-1.4,1.21,1.21,0,0,0-1.2-.66,1.26,1.26,0,0,0-1.1.55A2.59,2.59,0,0,0,79,56.47a3.15,3.15,0,0,0,.33,1.58,1.22,1.22,0,0,0,1.12.51A1.13,1.13,0,0,0,81.65,57.8Z"/><path class="cls-1" d="M87.2,59.17l-1.5-2.63c-.31-.52-.66-1.26-.7-1.36,0,.27,0,.81.06,1.47l0,2.52h-.93V53.91h1.06l1.53,2.65c.31.54.56,1.08.63,1.22,0-.12-.08-.79-.09-1.41l0-2.46h.9v5.26Z"/><path class="cls-1" d="M92.88,59.17l-.5-1.37h-2l-.5,1.37h-1l2-5.27H92l1.92,5.27Zm-1.47-4.42c0,.14-.72,2.16-.76,2.3h1.51C92.1,56.87,91.44,54.89,91.41,54.75Z"/><path class="cls-1" d="M97.62,59.17h-3V53.91h1V58.4h2.22Z"/><path class="cls-1" d="M102.09,59.3a4.22,4.22,0,0,1-2.22-.61l.38-.74a3.39,3.39,0,0,0,1.86.57c.9,0,1.49-.46,1.49-1.2,0-.56-.37-1-1.14-1.17l-.72-.21c-1-.3-1.63-.8-1.63-1.78a2,2,0,0,1,2.28-2,3.66,3.66,0,0,1,2.11.65l-.43.68a2.9,2.9,0,0,0-1.64-.54c-.77,0-1.25.4-1.25,1,0,.49.28.77,1,1l.81.24a2,2,0,0,1,1.68,1.94A2.31,2.31,0,0,1,102.09,59.3Z"/><path class="cls-1" d="M107.93,59.25a2.48,2.48,0,0,1-1.77-.65,2.68,2.68,0,0,1-.77-2,3,3,0,0,1,.45-1.64A2.47,2.47,0,0,1,108,53.81a2.64,2.64,0,0,1,1.48.42l-.46.63a1.84,1.84,0,0,0-1-.3,1.43,1.43,0,0,0-1.29.74,2.38,2.38,0,0,0-.26,1.25,2,2,0,0,0,.42,1.47,1.49,1.49,0,0,0,1.17.51,2,2,0,0,0,1.09-.33l.45.58A2.67,2.67,0,0,1,107.93,59.25Z"/><path class="cls-1" d="M110.34,59.17V53.91h1v5.26Z"/><path class="cls-1" d="M112.77,59.17V53.91h3.3l-.13.77h-2.23V56h1.86v.77h-1.85v1.56h2.43v.8Z"/><path class="cls-1" d="M120.39,59.17l-1.5-2.63c-.31-.52-.66-1.26-.7-1.36,0,.27,0,.81.06,1.47l0,2.52h-.93V53.91h1.06L120,56.56c.31.54.56,1.08.63,1.22,0-.12-.08-.79-.09-1.41l0-2.46h.9v5.26Z"/><path class="cls-1" d="M125,59.25a2.48,2.48,0,0,1-1.77-.65,2.68,2.68,0,0,1-.77-2A3,3,0,0,1,122.9,55,2.47,2.47,0,0,1,125,53.81a2.64,2.64,0,0,1,1.48.42l-.46.63a1.84,1.84,0,0,0-1-.3,1.43,1.43,0,0,0-1.29.74,2.38,2.38,0,0,0-.26,1.25,2,2,0,0,0,.42,1.47,1.49,1.49,0,0,0,1.17.51,2,2,0,0,0,1.09-.33l.45.58A2.67,2.67,0,0,1,125,59.25Z"/><path class="cls-1" d="M127.38,59.17V53.91h3.3l-.13.77h-2.23V56h1.86v.77h-1.85v1.56h2.43v.8Z"/><path class="cls-1" d="M137.18,53.07h-2.49v2.09h2v.78h-2v3.23h-1V52.28h3.59Z"/><path class="cls-1" d="M138.23,58.58a2.8,2.8,0,0,1-.73-2c0-1.68.92-2.7,2.43-2.7a2.29,2.29,0,0,1,1.9.82,2.8,2.8,0,0,1,.57,1.9,2.85,2.85,0,0,1-.54,1.9,2.17,2.17,0,0,1-1.87.81A2.2,2.2,0,0,1,138.23,58.58Zm2.94-.78a2.94,2.94,0,0,0,.17-1.18,3.16,3.16,0,0,0-.23-1.4,1.21,1.21,0,0,0-1.2-.66,1.26,1.26,0,0,0-1.1.55,2.59,2.59,0,0,0-.27,1.36,3.15,3.15,0,0,0,.33,1.58,1.22,1.22,0,0,0,1.12.51A1.13,1.13,0,0,0,141.17,57.8Z"/><path class="cls-1" d="M147.15,58.76a2.16,2.16,0,0,1-1.57.5,1.93,1.93,0,0,1-1.83-.83,2,2,0,0,1-.21-1.11V53.91h.94v3.23a2.47,2.47,0,0,0,.08.8,1,1,0,0,0,1,.54,1.07,1.07,0,0,0,.88-.33,1.27,1.27,0,0,0,.2-.89V53.91h1V57.3C147.62,58.14,147.51,58.43,147.15,58.76Z"/><path class="cls-1" d="M152.1,59.17l-1.5-2.63c-.31-.52-.66-1.26-.7-1.36,0,.27,0,.81.06,1.47l0,2.52h-.93V53.91h1.06l1.53,2.65c.31.54.56,1.08.63,1.22,0-.12-.08-.79-.09-1.41l0-2.46h.9v5.26Z"/><path class="cls-1" d="M157.21,54.09a2.24,2.24,0,0,1,1.51,2.45A2.42,2.42,0,0,1,157,59.1a4.08,4.08,0,0,1-.94.07h-1.53V53.91h1.18A3.92,3.92,0,0,1,157.21,54.09Zm.09,1a1.38,1.38,0,0,0-1.2-.48h-.62v3.75h.73a2,2,0,0,0,.5-.06c.56-.14,1-.63,1-1.74A2.16,2.16,0,0,0,157.3,55.14Z"/><path class="cls-1" d="M163.08,59.17l-.5-1.37h-2l-.5,1.37h-1l2-5.27h1.09l1.92,5.27Zm-1.47-4.42c0,.14-.72,2.16-.76,2.3h1.51C162.3,56.87,161.64,54.89,161.61,54.75Z"/><path class="cls-1" d="M168,54.68h-1.52v4.49h-.93V54.68h-1.5v-.77h4.08Z"/><path class="cls-1" d="M168.92,59.17V53.91h1v5.26Z"/><path class="cls-1" d="M172,58.58a2.8,2.8,0,0,1-.73-2c0-1.68.92-2.7,2.43-2.7a2.29,2.29,0,0,1,1.9.82,2.8,2.8,0,0,1,.57,1.9,2.85,2.85,0,0,1-.54,1.9,2.17,2.17,0,0,1-1.87.81A2.2,2.2,0,0,1,172,58.58Zm2.94-.78a2.94,2.94,0,0,0,.17-1.18,3.16,3.16,0,0,0-.23-1.4,1.21,1.21,0,0,0-1.2-.66,1.26,1.26,0,0,0-1.1.55,2.59,2.59,0,0,0-.27,1.36,3.15,3.15,0,0,0,.33,1.58,1.22,1.22,0,0,0,1.12.51A1.13,1.13,0,0,0,174.91,57.8Z"/><path class="cls-1" d="M180.36,59.17l-1.5-2.63c-.31-.52-.66-1.26-.7-1.36,0,.27.05.81.06,1.47l0,2.52h-.93V53.91h1.06l1.53,2.65c.31.54.56,1.08.63,1.22,0-.12-.08-.79-.09-1.41l0-2.46h.9v5.26Z"/><path class="cls-1" d="M32.42,10.5C29.25,9.6,27.16,8.77,27.16,5a6.36,6.36,0,0,1,2.16-5H0V17H26.43l-.05,0,2.17-4.3a6.89,6.89,0,0,0,4.5,2c1.2,0,2.48-.59,2.48-2S33.52,10.81,32.42,10.5ZM11.07,3.74H6.53V7h4.39V8.74H6.53v6.2H4.66V2h6.41Zm13.71,12L15.3,5.75v9.19H13.43V1.17l9.48,10V2h1.87Z"/><path class="cls-1" d="M39.9,0,40,.05,38,4a5.31,5.31,0,0,0-3.36-1.29c-.95,0-2.2.54-2.2,1.63S33.8,5.9,34.7,6.18l1.3.39c2.71.8,4.83,2.21,4.83,5.36A7.38,7.38,0,0,1,39.12,17H68V0ZM54.65,15.69,45.17,5.75v9.19H43.3V1.17l9.48,10V2h1.87ZM64,3.74H59.42V7h4.39V8.74H59.42v6.2H57.55V2H64Z"/></svg>